<svg width="27" height="27" viewBox="0 0 27 27" fill="none" xmlns="http://www.w3.org/2000/svg">
<path d="M15.7501 7.875V7.875C15.7501 7.60407 15.7501 7.46861 15.7416 7.3543C15.6283 5.83203 14.4181 4.62186 12.8958 4.50851C12.7815 4.5 12.6461 4.5 12.3751 4.5H10.1251C7.74092 4.5 6.54881 4.5 5.72365 5.12401C5.49715 5.29528 5.29541 5.49703 5.12413 5.72352C4.50012 6.54869 4.50012 7.74079 4.50012 10.125V12.375C4.50012 12.6459 4.50012 12.7814 4.50863 12.8957C4.62198 14.418 5.83215 15.6281 7.35442 15.7415C7.46873 15.75 7.60419 15.75 7.87512 15.75V15.75" stroke="#B290FC" stroke-width="3.08324"/>
<rect x="11.2501" y="11.25" width="11.25" height="11.25" rx="3.08324" stroke="#B290FC" stroke-width="3.08324"/>
</svg>
